<svg width="203" height="48" viewBox="0 0 203 48" fill="none" xmlns="http://www.w3.org/2000/svg">
<path d="M5.45421 28.9693C4.47137 25.3013 4.5983 21.4242 5.81893 17.8284C7.03957 14.2325 9.29909 11.0793 12.3118 8.76761C15.3245 6.4559 18.955 5.08947 22.7442 4.84111C26.5335 4.59274 30.3113 5.47361 33.6 7.37231" stroke="white" stroke-width="3.072" stroke-linecap="round"/>
<path d="M40.6277 14.4C42.5264 17.6886 43.4073 21.4665 43.1589 25.2557C42.9106 29.045 41.5441 32.6755 39.2324 35.6882C36.9207 38.7009 33.7675 40.9604 30.1717 42.1811C26.5758 43.4017 22.6987 43.5286 19.0307 42.5458" stroke="white" stroke-width="3.072" stroke-linecap="round"/>
<path opacity="0.75" d="M17.2918 13.5294C19.526 12.1124 22.1254 11.3986 24.7614 11.4783C27.3974 11.558 29.9517 12.4275 32.1011 13.977C34.2505 15.5265 35.8986 17.6863 36.8369 20.1833C37.7752 22.6803 37.9617 25.4024 37.3726 28.0053" stroke="white" stroke-width="3.072" stroke-linecap="round"/>
<path opacity="0.75" d="M31.4654 35.1888C29.2031 36.5604 26.5898 37.2216 23.9559 37.0887C21.322 36.9558 18.7859 36.0349 16.6682 34.4423C14.5505 32.8498 12.9463 30.6572 12.0586 28.1417C11.1708 25.6263 11.0394 22.901 11.6808 20.3105" stroke="white" stroke-width="3.072" stroke-linecap="round"/>
<path d="M76.6705 34.5H70.7045V14.1364H77.0284C78.9706 14.1364 80.6312 14.5407 82.0099 15.3494C83.3954 16.1581 84.456 17.3182 85.1918 18.8295C85.9276 20.3409 86.2955 22.1539 86.2955 24.2685C86.2955 26.4029 85.9176 28.2358 85.1619 29.767C84.4129 31.2917 83.3191 32.4616 81.8807 33.277C80.4489 34.0923 78.7121 34.5 76.6705 34.5ZM72.5639 32.8295H76.5611C78.3111 32.8295 79.776 32.4848 80.956 31.7955C82.1359 31.1061 83.0208 30.1217 83.6108 28.8423C84.2008 27.563 84.4957 26.0384 84.4957 24.2685C84.4891 22.5118 84.1974 21.0005 83.6207 19.7344C83.0507 18.4683 82.2022 17.4972 81.0753 16.821C79.955 16.1449 78.5696 15.8068 76.919 15.8068H72.5639V32.8295ZM100.044 14.1364V34.5H98.185V14.1364H100.044ZM112.871 34.5H110.922L118.33 14.1364H120.319L127.726 34.5H125.777L119.394 16.5526H119.255L112.871 34.5ZM114.273 26.6946H124.375V28.3651H114.273V26.6946ZM138.599 34.5V14.1364H140.458V32.8295H150.163V34.5H138.599ZM161.732 34.5V14.1364H173.544V15.8068H163.591V23.473H172.918V25.1435H163.591V32.8295H173.743V34.5H161.732ZM191.706 34.5H185.74V14.1364H192.064C194.006 14.1364 195.666 14.5407 197.045 15.3494C198.431 16.1581 199.491 17.3182 200.227 18.8295C200.963 20.3409 201.331 22.1539 201.331 24.2685C201.331 26.4029 200.953 28.2358 200.197 29.767C199.448 31.2917 198.354 32.4616 196.916 33.277C195.484 34.0923 193.747 34.5 191.706 34.5ZM187.599 32.8295H191.596C193.346 32.8295 194.811 32.4848 195.991 31.7955C197.171 31.1061 198.056 30.1217 198.646 28.8423C199.236 27.563 199.531 26.0384 199.531 24.2685C199.524 22.5118 199.233 21.0005 198.656 19.7344C198.086 18.4683 197.237 17.4972 196.11 16.821C194.99 16.1449 193.605 15.8068 191.954 15.8068H187.599V32.8295Z" fill="white"/>
</svg>
